<svg id="Ebene_1" data-name="Ebene 1" xmlns="http://www.w3.org/2000/svg" viewBox="0 0 390.25 97.56"><defs><style>.cls-1{fill:#1d1d1b;}.cls-2{fill:#0069b4;}</style></defs><title>itbh</title><path class="cls-1" d="M393.18,50.14a17.22,17.22,0,0,0,.38-3.63c0-11.14-8.19-19.69-19.71-19.69h-2.69a25.27,25.27,0,0,0-9.86,2.07L365,4.79a5.63,5.63,0,0,0,.13-.65A3.38,3.38,0,0,0,361.56.78h-5.38a5.05,5.05,0,0,0-4.74,4l-13.7,88a1.12,1.12,0,0,0-.13.64,3.46,3.46,0,0,0,3.46,3.5h5.51a5,5,0,0,0,4.73-4.14L358,50.14a11.53,11.53,0,0,1,11-9.59h2.69a7.85,7.85,0,0,1,8.07,8.16,5.83,5.83,0,0,1-.13,1.43L373,92.77v.64a3.38,3.38,0,0,0,3.46,3.5h5.5a4.8,4.8,0,0,0,4.61-4.14Zm-69.78,0a34.07,34.07,0,0,0,.26-3.63c0-11.14-8.2-19.69-19.72-19.69h-2.69a25.31,25.31,0,0,0-9.86,2.07l3.72-24.1a1,1,0,0,0,.12-.65A3.34,3.34,0,0,0,291.78.78h-5.51a5.06,5.06,0,0,0-4.74,4l-13.7,88c0,.25-.12.38-.12.64a3.48,3.48,0,0,0,3.58,3.5h5.38a4.47,4.47,0,0,0,3.07-1.29A20.53,20.53,0,0,0,290,98.34h2.82c12.68,0,24.71-10.5,26.63-23.45Zm-13.57,0-4,24.75a11.64,11.64,0,0,1-11,9.71h-2.69a7.92,7.92,0,0,1-8.07-8.16,6.21,6.21,0,0,1,.13-1.55l3.84-24.75a11.54,11.54,0,0,1,11-9.59h2.69a8,8,0,0,1,8.2,8.16c0,.39-.13.91-.13,1.43" transform="translate(-3.32 -0.77)"/><path class="cls-2" d="M249,35.11v-.65a3.46,3.46,0,0,0-3.45-3.5H222.38l4.1-26.17a1,1,0,0,0,.13-.65A3.36,3.36,0,0,0,223.15.77h-5.5a5.06,5.06,0,0,0-4.74,4L208.81,31H202a5,5,0,0,0-4.73,4.15l-.77,5.44a1.17,1.17,0,0,0-.13.65A3.5,3.5,0,0,0,200,44.7h6.78L202,74.89a19.09,19.09,0,0,0-.38,3.75c0,11.15,8.19,19.7,19.72,19.7,12.8,0,24.71-10.5,26.76-23.45l.51-2.72v-.65a3.38,3.38,0,0,0-3.46-3.5h-5.5a4.92,4.92,0,0,0-4.61,4.15l-.51,2.72a11.65,11.65,0,0,1-11,9.71,7.92,7.92,0,0,1-8.06-8.16,6.21,6.21,0,0,1,.13-1.55l4.73-30.19h23a5.2,5.2,0,0,0,4.74-4.15ZM176.29,4.79a5.63,5.63,0,0,0,.13-.65A3.4,3.4,0,0,0,172.83.77H162.08a4.85,4.85,0,0,0-4.74,4l-1.79,11v.65A3.38,3.38,0,0,0,159,20h10.89a5.06,5.06,0,0,0,4.74-4.15ZM181,87.32a1.36,1.36,0,0,0,.13-.64,3.46,3.46,0,0,0-3.46-3.5h-15l7.94-50.92v-.52a3.32,3.32,0,0,0-3.46-3.5H148.42a5.07,5.07,0,0,0-4.74,4l-.76,5.57a1.17,1.17,0,0,0-.13.65,3.49,3.49,0,0,0,3.58,3.5h9.18l-6.4,41.2H136.59a4.93,4.93,0,0,0-4.73,4.14l-.9,5.45v.64a3.38,3.38,0,0,0,3.46,3.5h41.1a5.05,5.05,0,0,0,4.74-4.14Zm-68.37-81A4.07,4.07,0,0,0,113.3,4,3.19,3.19,0,0,0,109.84.77H104a5.54,5.54,0,0,0-4.22,2.47l-49,88a4.25,4.25,0,0,0-.64,2.33,3.21,3.21,0,0,0,3.45,3.37h5.89a5.36,5.36,0,0,0,4.23-2.59Zm-46.73,0A4.07,4.07,0,0,0,66.57,4,3.19,3.19,0,0,0,63.11.77H57.22A5.58,5.58,0,0,0,53,3.24l-49,88a4.25,4.25,0,0,0-.64,2.33,3.21,3.21,0,0,0,3.45,3.37h5.89a5.36,5.36,0,0,0,4.23-2.59Z" transform="translate(-3.32 -0.77)"/></svg>